# xmcd
#
# Track frame offsets:
#	150
#	16390
#	33172
#	48880
#	67414
#	87882
#	106765
#	124450
#	142800
#	159129
#	177561
#	193066
#	211671
#	229062
#	244741
#
# Disc length: 3516 seconds
#
# Revision: 0
# Processed by: cddbd v1.5.2PL0 Copyright (c) Steve Scherf et al.
# Submitted via: audiograbber 1.83.01
#
DISCID=c50dba0f
DTITLE=Various Artist - Rewind The 80s Album CD1
DYEAR=1900
DGENRE=Pop
TTITLE0=Rick Astley - Never Gonna Give You Up
TTITLE1=Chesney Hawkes - The One And Only
TTITLE2=Jason Donovan - Too Many Broken Hearts
TTITLE3=Belinda Carlisle - Heaven Is A Place On Earth
TTITLE4=Cutting Crew - (I Just) Died In Your Arms
TTITLE5=Billy Ocean - When the Going Gets Tough, the Tough Get Going
TTITLE6=Katrina and The Waves - Walking On Sunshine
TTITLE7=Culture Club - Karma Chameleon
TTITLE8=Bananarama - Venus
TTITLE9=Five Star - System Addict
TTITLE10=Sonia - You'll Never Stop Me Loving You
TTITLE11=T'Pau - China In Your Hand (Single Version)
TTITLE12=Curiosity Killed The Cat - Down To Earth (Single Version)
TTITLE13=Captain Sensible - Happy Talk
TTITLE14=Chas and Dave - Ain't No Pleasing You
EXTD=(p)2014 Inspired Records
EXTT0=
EXTT1=
EXTT2=
EXTT3=
EXTT4=
EXTT5=
EXTT6=
EXTT7=
EXTT8=
EXTT9=
EXTT10=
EXTT11=
EXTT12=
EXTT13=
EXTT14=
PLAYORDER=
